<svg width="30" height="30" viewBox="0 0 30 30" fill="none" xmlns="http://www.w3.org/2000/svg"><rect x=".5" y=".5" width="29" height="29" rx="2.5" stroke="#C3C6C9"/><path fill-rule="evenodd" clip-rule="evenodd" d="M11.371 16.805a.8.8 0 01-.568-.244L9.201 14.98c-1.601-1.602-1.601-4.197 0-5.779 1.602-1.601 4.197-1.601 5.779 0l1.601 1.602a.807.807 0 010 1.155.806.806 0 01-1.155 0l-1.602-1.601a2.472 2.472 0 00-1.744-.73c-.67 0-1.277.263-1.744.73a2.447 2.447 0 000 3.487l1.602 1.601a.807.807 0 010 1.156.909.909 0 01-.567.204zm6.53 5.17A4.135 4.135 0 0115 20.78l-1.602-1.601a.807.807 0 010-1.156.807.807 0 011.155 0l1.602 1.602a2.447 2.447 0 003.487 0 2.447 2.447 0 000-3.488l-1.601-1.601a.807.807 0 010-1.156.807.807 0 011.155 0l1.602 1.602c1.601 1.601 1.601 4.197 0 5.779a4.07 4.07 0 01-2.899 1.215zm-2.171-5.13a.8.8 0 00.568.243.878.878 0 00.587-.223.807.807 0 000-1.155l-2.615-2.616a.807.807 0 00-1.155 0 .807.807 0 000 1.155l2.615 2.596z" fill="#C7CACC"/></svg>