<svg xmlns="http://www.w3.org/2000/svg" xmlns:xlink="http://www.w3.org/1999/xlink"><symbol id="loupe" viewBox="0 0 14 14"><path fill-rule="evenodd" clip-rule="evenodd" d="M9.174 1.567a5.408 5.408 0 011.592 3.81 5.427 5.427 0 01-1.573 3.83 5.391 5.391 0 01-3.81 1.597 5.372 5.372 0 01-3.804-1.58 5.411 5.411 0 01-.011-7.633 5.372 5.372 0 017.607-.023zm-1.117 6.5a3.82 3.82 0 00-2.674-6.534c-1.008 0-1.975.4-2.688 1.114a3.823 3.823 0 00-.013 5.395A3.8 3.8 0 005.364 9.17a3.8 3.8 0 002.693-1.104zm1.425 2.536l3.404 3.398L14 12.879l-3.405-3.397-1.113 1.121z" fill="#C3C6C9"/></symbol></svg>